<svg xmlns="http://www.w3.org/2000/svg" width="120" height="200" viewBox="0 0 120 24" role="img" aria-label="5 star rating">
    <title>5 Star Rating</title>
    <defs>
        <style>
            .star {
            fill: black;
            }
        </style>
    </defs>
    <g>
        <!-- Star 1 -->
        <polygon class="star" points="12,2 15,9 22,9 16,14 18,21 12,17 6,21 8,14 2,9 9,9"/>
        <!-- Star 2 -->
        <polygon class="star" points="36,2 39,9 46,9 40,14 42,21 36,17 30,21 32,14 26,9 33,9"/>
        <!-- Star 3 -->
        <polygon class="star" points="60,2 63,9 70,9 64,14 66,21 60,17 54,21 56,14 50,9 57,9"/>
        <!-- Star 4 -->
        <polygon class="star" points="84,2 87,9 94,9 88,14 90,21 84,17 78,21 80,14 74,9 81,9"/>
        <!-- Star 5 -->
        <polygon class="star" points="108,2 111,9 118,9 112,14 114,21 108,17 102,21 104,14 98,9 105,9"/>
    </g>
</svg>
